<?xml version="1.0" standalone="no"?>
<!DOCTYPE svg PUBLIC "-//W3C//DTD SVG 20010904//EN"
 "http://www.w3.org/TR/2001/REC-SVG-20010904/DTD/svg10.dtd">
<svg version="1.0" xmlns="http://www.w3.org/2000/svg"
 width="512.000000pt" height="512.000000pt" viewBox="0 0 512.000000 512.000000"
 preserveAspectRatio="xMidYMid meet">
<metadata>
Created by potrace 1.14, written by Peter Selinger 2001-2017
</metadata>
<g transform="translate(0.000000,512.000000) scale(0.100000,-0.100000)"
fill="#000000" stroke="none">
<path d="M175 5107 c-52 -13 -146 -107 -162 -160 -7 -25 -12 -132 -13 -288
l-1 -250 30 -29 c16 -17 36 -30 43 -30 11 0 14 -18 14 -81 l-1 -80 -33 -16
c-19 -9 -38 -27 -43 -40 -5 -15 -9 -631 -9 -1506 l0 -1482 25 -52 c26 -57 44
-78 90 -110 66 -44 59 -44 968 -43 l868 0 -6 -38 c-25 -149 -64 -230 -148
-309 -105 -100 -177 -123 -452 -148 -96 -9 -160 -45 -201 -113 -27 -44 -31
-62 -33 -127 -2 -89 18 -135 76 -175 l37 -25 1315 -3 c913 -2 1327 0 1353 8
38 11 98 66 106 97 3 10 7 44 9 77 13 155 -73 246 -247 261 -174 16 -252 33
-324 69 -81 41 -109 64 -160 131 -49 64 -75 123 -92 212 -8 41 -14 76 -14 78
0 3 388 4 863 5 474 0 878 4 898 9 73 17 151 92 177 170 19 53 16 3773 -2
3824 -28 77 -84 133 -161 164 -41 16 -4710 16 -4770 0z"/>
</g>
</svg>
